<svg viewBox="75 75 825 800" xmlns="http://www.w3.org/2000/svg">

  <!-- to hide the path, it is usually wrapped in a <defs> element -->
  <!-- <defs> -->
  <defs>
    <style type="text/css">
      @import url('https://fonts.googleapis.com/css2?family=Balsamiq+Sans:wght@700');
    </style>
    <radialGradient id="myGradient">
      <stop offset="30%" stop-color="black" />
      <stop offset="100%" stop-color="purple" />
    </radialGradient>
    <radialGradient id="iconGradient">
      <stop offset="70%" stop-color="#6ebe49" />
      <stop offset="150%" stop-color="#a1ff75" />
    </radialGradient>
  </defs>
  <!--
  <path d="M75,450a375,375 0 1,0 750,0a375,375 0 1,0 -750,0" id="CIRCLE" fill="url(#myGradient)" stroke="none" opacity="1" />
  -->
  <rect x="75" y="75" width="750" height="725" id="SQUARE" fill="url(#myGradient)" stroke="none" opacity="1" />
  <path d="M487.28 276.41C491.62 282.41 498.14 289.09 503.52 293.05C515.62 301.92 529.18 306.7 545.34 307.82C553.69 308.37 567.22 307.32 571.78 305.75C573.77 305.05 576.08 302.99 577.07 301.02C577.76 299.62 577.85 299.18 577.85 297.08C577.85 294.89 577.76 294.57 576.97 293.05C575.44 290.14 572.6 288.24 569.1 287.77C568.3 287.65 566.66 287.77 564.55 288.09C558.66 288.97 555.18 289.19 549.24 289.04C540.79 288.84 534.29 287.62 527.84 284.98C514.65 279.6 503.39 268.27 497.61 254.52C497.04 253.23 496.25 251.68 495.79 251.08C493.47 247.92 488.54 246.5 484.47 247.8C480.35 249.12 477.65 252.65 477.65 256.69C477.65 260.12 482.07 269.17 487.28 276.41Z" id="COWBOY_HAT_FOLD" fill="#a1ff75" transform="translate(-75,50)" /> <!-- #6ebe49 color -->
  <path d="M393.1 292.91C387.32 312.08 382.56 327.82 382.51 327.87C382.46 327.92 381.95 327.77 381.33 327.55C379.94 327.03 356.02 320.73 346.68 318.43C330.12 314.32 317.66 312.01 306.42 310.91C302.14 310.51 291.26 310.51 288.1 310.91C275.39 312.58 266.99 316.32 259.63 323.56C252.7 330.39 248.36 340.05 246.6 352.55C246.01 356.81 245.79 368.22 246.19 373.6C248.66 406 263.51 439.2 289.41 470.24C300.75 483.83 316.16 498.53 331.43 510.31C344.82 520.62 360.76 530.76 376.78 539.08C382.24 541.91 395.04 547.87 400.6 550.16C427.62 561.29 455.92 568.71 484.34 572.08C497.8 573.67 505.21 574.09 520.99 574.09C536.78 574.09 544.16 573.67 557.65 572.08C600.72 566.97 643.36 552.55 680.66 530.46C723.23 505.23 758.12 470.26 777.62 433.25C790.33 409.12 796.57 384.88 795.94 362.14C795.68 352.95 794.61 346.45 792.26 339.8C789.71 332.61 786.34 327.35 781.31 322.67C775.57 317.34 769.06 314 760.71 312.13C745.49 308.67 725.96 310.66 692.54 319.08C682.75 321.52 662.44 326.9 660.95 327.4C660.14 327.67 659.44 327.87 659.39 327.82C659.34 327.77 654.56 311.93 648.72 292.63C642.91 273.33 637.51 255.75 636.73 253.55C631.49 239.01 624.21 226.38 614.69 215.32C611.88 212.09 603.58 204.36 600.3 201.95C591.49 195.47 582.69 191.31 572.5 188.77C564.94 186.91 554.65 188.37 545.36 192.58C538.57 195.7 532.15 200.8 528.54 205.98C524.84 211.31 524.07 212.31 523.57 212.43C522.78 212.63 519.15 212.61 518.35 212.41C517.92 212.31 517.03 211.26 515.42 209C512.32 204.54 510.29 202.17 507.18 199.38C500.66 193.51 491.89 189.82 480.83 188.32C476.85 187.78 473.76 187.85 470.56 188.55C444.34 194.25 421.44 215.32 408.17 245.96C405.43 252.21 403.62 257.96 393.1 292.91ZM491.4 226.16C494.13 230.02 498.68 234.33 502 236.22C505.31 238.09 509.17 239.41 513.9 240.25C516.82 240.8 525.86 240.7 528.75 240.13C536.01 238.68 540.58 236.47 545.09 232.28C547.93 229.62 550.02 227.13 552.48 223.42C555.48 218.86 558.07 217.29 564.22 216.34C566.02 216.05 566.27 216.07 568.24 216.69C576.8 219.36 587.07 227.5 595.04 237.89C600.14 244.54 604.81 253.03 607.64 260.78C608.34 262.72 643.85 380.33 644.11 381.55C644.17 381.92 643.72 382.17 641.53 382.97C617.47 391.78 585.85 397.83 552.03 400.1C531.59 401.5 508.31 401.45 487.96 399.98C458.65 397.88 430.27 392.78 407.93 385.58C400.87 383.29 397.79 382.04 397.84 381.52C397.95 380.5 433.56 262.79 434.55 260.1C436.74 254.2 439.89 248.07 443.57 242.55C451.92 229.97 463.66 219.88 473.69 216.69C474.76 216.37 475.67 216.07 475.67 216.07C475.7 216.07 476.9 216.29 478.34 216.57C482.92 217.44 484.98 218.19 486.11 219.36C487.12 220.38 489.23 223.09 491.4 226.16ZM372.85 354.3C373.68 354.45 374.38 354.7 374.38 354.85C374.38 355 373.12 359.28 371.6 364.36C370.04 369.44 367.63 377.59 366.21 382.44C364.8 387.3 362.12 396.24 360.31 402.29C356.61 414.47 356.34 415.99 356.95 420.07C358.3 428.67 364.42 436.29 375.18 442.76C379.38 445.3 381.87 446.35 388.07 448.29C428.44 460.85 476.53 467.15 527.01 466.52C565.91 466.05 600.88 461.92 633.42 453.92C646.61 450.68 660.38 446.45 663.94 444.56C673.33 439.53 679.49 433.95 682.88 427.4C684.89 423.51 685.4 421.42 685.38 416.94C685.38 416.69 685.38 415.44 685.38 413.2C683.83 408.19 682.98 405.41 682.81 404.86C681.39 400.27 679.49 394 678.58 390.93C677.66 387.87 676.81 385.18 676.67 384.96C676.51 384.73 674.38 377.83 671.92 369.62C671.61 368.62 670.12 363.64 667.41 354.67C668.08 354.55 668.45 354.49 668.52 354.47C669.1 354.35 672.08 353.6 675.1 352.8C700.11 346.15 713.41 342.94 723.79 341C743.16 337.44 755.12 337.89 759.86 342.42C763.79 346.18 765.79 353.78 765.79 364.86C765.79 396.84 749.37 431.66 719.27 463.51C712.42 470.76 700.87 481.14 691.98 488.04C665.26 508.77 632.5 525.35 599.22 534.94C564.01 545.13 527.63 548.37 491.56 544.55C449.69 540.12 409.05 526.25 373.18 504.11C341.34 484.48 315.06 459.28 297.65 431.63C285.64 412.58 278.51 393.15 276.59 374.22C275.97 368.2 276.13 357.93 276.94 353.78C278.75 344.39 281.94 340.6 289.16 339.26C290.34 339.06 291.73 338.83 292.24 338.78C294.3 338.58 299.76 338.63 302.67 338.88C315.49 339.95 329.51 342.94 361.94 351.51C367.1 352.88 371.99 354.12 372.85 354.3Z" id="MAIN_COWBOY_SHAPE" fill="#a1ff75" transform="translate(-75,50)" />  <!-- #6ebe49 color -->
  <path d="M200,450a250,250 0 1,1 500,0" id="CIRCLE_INNER_TOP" fill="none" stroke="red" stroke-opacity="0.0" stroke-width="10" />
  <path d="M125,450a325,325 0 1,0 650,0" id="CIRCLE_INNER_BOT" fill="none" stroke="blue" stroke-opacity="0.0" stroke-width="10" />
  
  <text fill="#a1ff75" font-size="120" font-family="Balsamiq Sans" font-weight="bold" x="220" y="200">
    HOWDY!
  </text>
  <text fill="#a1ff75" font-size="120" font-family="Balsamiq Sans" font-weight="bold" x="150" y="750" >
    CORE GUI
  </text>

</svg>
