<?xml version="1.0" encoding="utf-8"?>
<!-- Generator: Adobe Illustrator 21.1.0, SVG Export Plug-In . SVG Version: 6.00 Build 0)  -->
<svg version="1.1" id="Layer_1" xmlns="http://www.w3.org/2000/svg" xmlns:xlink="http://www.w3.org/1999/xlink" x="0px" y="0px"
     viewBox="0 0 288 144" style="enable-background:new 0 0 288 144;" xml:space="preserve">
  <style type="text/css">
    .st0{fill:#515256;}
    .st1{fill:#FFFFFF;}
  </style>
  <g id="the_whole_shebang">
    <g>
      <g>
	<path d="M254.5,65.5c3,0,5.6,1.6,6.2,5h-12.5C248.8,66.9,251.7,65.5,254.5,65.5 M248.2,72.8h15.5c0-7.4-4.9-9.7-9.1-9.7
		 c-6.1,0-9.1,4.2-9.1,8.8c0,4.8,3.1,8.7,9,8.7c5.7,0,8-2.6,9-6h-2.8c-0.7,2.2-2.6,3.6-6.3,3.6C250.5,78.2,248.3,75.8,248.2,72.8"
	      />
	<path d="M236.5,80.6c5.1,0,7.1-2.4,7.9-6h-2.6c-0.6,2.4-2,3.6-5.3,3.6c-3.1,0-4.4-1.1-4.4-4.1v-8.3h8.8v-2.3h-8.8v-4.2h-2.7v15.2
		 C229.4,78.5,231.7,80.6,236.5,80.6"/>
	<path d="M191.7,65.9v-2.4h-2.6v16.8h2.7V71c0-3.4,1.8-5.5,6.2-5.5c2.9,0,5.1,0.8,5.1,4.1v10.7h2.7V69.9c0-4.8-2.9-6.9-7.4-6.9
		 C195.2,63.1,192.8,64.4,191.7,65.9"/>
	<path d="M163.6,70.2h2.7c-0.4-2.7-1.6-4.4-3.3-5.5c-1.6-1.1-3.6-1.6-5.8-1.6c-6.1,0-9.1,4.2-9.1,8.8c0,4.2,2.6,8.7,9.1,8.7
		 c5.5,0,8-2.4,9.1-6h-2.8c-0.9,2.3-2.4,3.6-6.3,3.6c-4.6,0-6.3-3.1-6.3-6.6c0-3.9,2.9-6.1,6.3-6.1
		 C160.7,65.5,162.9,66.8,163.6,70.2"/>
	<path d="M123.2,65.8v-2.3h-2.7v16.8h2.7V71c0-3.4,1.6-5.5,5.8-5.5v-2.5C125.8,63.1,124.1,64.4,123.2,65.8"/>
	<path d="M217.6,80.6c6.9,0,9.7-4.4,9.7-8.7c0-5.8-4.1-8.8-9.7-8.8c-6,0-9.7,3.7-9.7,8.8C207.9,75.7,210.4,80.6,217.6,80.6
		 L217.6,80.6z M217.6,65.5c4.6,0,7.1,2.4,7.1,6.4c0,3.3-2.3,6.3-7.1,6.3c-5,0-7-3.2-7-6.3C210.6,67.9,213.5,65.5,217.6,65.5
		 L217.6,65.5z"/>
	<path d="M171.4,72.8h15.5c0-7.4-4.9-9.7-9.1-9.7c-6.1,0-9.2,4.2-9.2,8.8c0,4.8,3.1,8.7,9,8.7c5.7,0,8-2.6,9.1-6h-2.8
		 c-0.7,2.2-2.6,3.6-6.3,3.6C173.8,78.2,171.5,75.8,171.4,72.8 M177.7,65.5c3,0,5.6,1.6,6.2,5h-12.5C172,66.9,175,65.5,177.7,65.5"
	      />
	<path d="M143.1,77.9v2.3h2.7V68.2c0-3.2-2.3-5.1-7.8-5.1c-5.6,0-7.5,2.3-8,5.9h2.7c0.3-2.4,1.7-3.5,5.3-3.5c3.8,0,5.1,0.9,5.1,3
		 v1.8h-5.3c-3.9,0-8.3,0.8-8.3,5.2c0,3.8,3.7,5.1,6.5,5.1C138.5,80.6,141.4,80.1,143.1,77.9 M143.1,72.6v0.6
		 c0,3.7-3.3,4.9-6.5,4.9c-2.5,0-4.4-0.6-4.4-2.9c0-1.8,2-2.7,5.1-2.7H143.1z"/>
	<path d="M114.5,66c-1.7-2.1-4.4-2.9-7-2.9c-5.2,0-9.6,3.4-9.6,8.7c0,5.9,4.6,8.8,9.5,8.8c2.6,0,5.4-0.7,7-2.9v1.1
		 c0,4.2-2.1,5.7-6.9,5.7c-2.7,0-5.5-0.5-6.1-3.5h-2.8c0.8,4.9,5.1,5.9,9,5.9c5.7,0,9.4-2.1,9.4-8.7V63.4h-2.7V66z M107.5,65.5
		 c4.3,0,7.1,2.4,7.1,6.3c0,3.8-2.7,6.4-7.1,6.4c-4.2,0-6.8-2.6-6.8-6.4C100.7,67.9,103.7,65.5,107.5,65.5"/>
	<path d="M265,78.2h0.3c0.2,0,0.4,0,0.4,0.2c0,0.2-0.2,0.3-0.4,0.3H265V78.2z M264.7,79.7h0.3v-0.7h0.2l0.4,0.7h0.3l-0.5-0.8
		 c0.2,0,0.4-0.1,0.4-0.5c0-0.4-0.2-0.5-0.6-0.5h-0.7V79.7z M263.8,78.8c0,0.9,0.7,1.6,1.5,1.6c0.8,0,1.5-0.6,1.5-1.6
		 c0-0.9-0.7-1.6-1.5-1.6C264.5,77.2,263.8,77.8,263.8,78.8 M264.1,78.8c0-0.7,0.5-1.2,1.2-1.2c0.6,0,1.2,0.5,1.2,1.2
		 c0,0.7-0.5,1.2-1.2,1.2C264.7,80,264.1,79.5,264.1,78.8"/>
      </g>
      <g>
	<path class="st0" d="M131.4,97.9l4.1-9c0-0.1,0.1-0.1,0.2-0.1h0.1c0.1,0,0.2,0.1,0.2,0.1l4,9c0.1,0.2,0,0.3-0.2,0.3h-0.5
			     c-0.1,0-0.2-0.1-0.2-0.1l-1-2.2h-4.7l-1,2.2c0,0.1-0.1,0.1-0.2,0.1h-0.5C131.4,98.2,131.3,98.1,131.4,97.9z M137.7,95.1
			     c-0.7-1.5-1.3-2.9-1.9-4.4h-0.1l-1.9,4.4H137.7z"/>
	<path class="st0" d="M144.4,89c0-0.1,0.1-0.2,0.3-0.2h0.3l6,7.5c0,0,0,0,0,0v-7.1c0-0.1,0.1-0.3,0.3-0.3h0.5
			     c0.1,0,0.3,0.1,0.3,0.3v9c0,0.1-0.1,0.2-0.3,0.2h-0.2l-6.1-7.6h0V98c0,0.1-0.1,0.3-0.3,0.3h-0.5c-0.1,0-0.3-0.1-0.3-0.3V89z"/>
	<path class="st0" d="M154.7,89.2c0-0.1,0.1-0.3,0.3-0.3h0.5c0.1,0,0.3,0.1,0.3,0.3V98c0,0.1-0.1,0.3-0.3,0.3H155
			     c-0.1,0-0.3-0.1-0.3-0.3V89.2z"/>
	<path class="st0" d="M158.5,89.2c0-0.1,0.1-0.3,0.3-0.3h5.2c0.1,0,0.3,0.1,0.3,0.3v0.4c0,0.1-0.1,0.3-0.3,0.3h-4.5v3.3h3.8
			     c0.1,0,0.3,0.1,0.3,0.3v0.4c0,0.1-0.1,0.3-0.3,0.3h-3.8v3.4h4.5c0.1,0,0.3,0.1,0.3,0.3V98c0,0.1-0.1,0.3-0.3,0.3h-5.2
			     c-0.1,0-0.3-0.1-0.3-0.3V89.2z"/>
	<path class="st0" d="M166.4,89.2c0-0.1,0.1-0.3,0.3-0.3h0.5c0.1,0,0.3,0.1,0.3,0.3v8.2h3.8c0.1,0,0.3,0.1,0.3,0.3V98
			     c0,0.1-0.1,0.3-0.3,0.3h-4.6c-0.1,0-0.3-0.1-0.3-0.3V89.2z"/>
	<path class="st0" d="M172.3,96.9c0.1-0.1,0.1-0.2,0.2-0.3c0.1-0.2,0.3-0.3,0.5-0.1c0.1,0.1,1.1,1,2.3,1c1.1,0,1.8-0.7,1.8-1.5
			     c0-0.9-0.8-1.5-2.3-2.1c-1.5-0.6-2.3-1.2-2.3-2.8c0-0.9,0.7-2.4,2.8-2.4c1.3,0,2.3,0.7,2.3,0.7c0.1,0,0.2,0.2,0.1,0.5
			     c-0.1,0.1-0.1,0.2-0.2,0.3c-0.1,0.2-0.3,0.2-0.5,0.1c-0.1-0.1-0.9-0.6-1.7-0.6c-1.4,0-1.8,0.9-1.8,1.5c0,0.9,0.7,1.4,1.8,1.9
			     c1.8,0.7,3,1.4,3,3c0,1.4-1.3,2.4-2.9,2.4c-1.6,0-2.6-0.9-2.8-1.1C172.3,97.2,172.2,97.1,172.3,96.9z"/>
	<path class="st0" d="M180,89.2c0-0.1,0.1-0.3,0.3-0.3h5.2c0.1,0,0.3,0.1,0.3,0.3v0.4c0,0.1-0.1,0.3-0.3,0.3H181v3.3h3.8
			     c0.1,0,0.3,0.1,0.3,0.3v0.4c0,0.1-0.1,0.3-0.3,0.3H181v3.4h4.5c0.1,0,0.3,0.1,0.3,0.3V98c0,0.1-0.1,0.3-0.3,0.3h-5.2
			     c-0.1,0-0.3-0.1-0.3-0.3V89.2z"/>
	<path class="st0" d="M187.9,89c0-0.1,0.1-0.2,0.3-0.2h0.3l6,7.5c0,0,0,0,0,0v-7.1c0-0.1,0.1-0.3,0.3-0.3h0.5
			     c0.1,0,0.3,0.1,0.3,0.3v9c0,0.1-0.1,0.2-0.3,0.2H195l-6.1-7.6h0V98c0,0.1-0.1,0.3-0.3,0.3h-0.5c-0.1,0-0.3-0.1-0.3-0.3V89z"/>
	<path class="st0" d="M205.3,88.8c1.3,0,2.3,0.5,3.2,1.2c0.1,0.1,0.1,0.3,0,0.4l-0.4,0.4c-0.1,0.1-0.2,0.1-0.3,0
			     c-0.7-0.6-1.6-1-2.5-1c-2.1,0-3.7,1.8-3.7,3.8c0,2.1,1.6,3.8,3.7,3.8c1.2,0,1.8-0.5,2.5-1c0.1-0.1,0.2-0.1,0.3,0l0.4,0.4
			     c0.1,0.1,0.1,0.3,0,0.4c-0.9,0.9-2.1,1.3-3.2,1.3c-2.7,0-4.8-2.1-4.8-4.8S202.6,88.8,205.3,88.8z"/>
	<path class="st0" d="M214.7,88.8c2.7,0,4.8,2.1,4.8,4.8s-2.1,4.8-4.8,4.8s-4.8-2.1-4.8-4.8S212,88.8,214.7,88.8z M214.7,97.5
			     c2.1,0,3.9-1.7,3.9-3.9c0-2.1-1.7-3.9-3.9-3.9c-2.1,0-3.9,1.8-3.9,3.9C210.8,95.7,212.5,97.5,214.7,97.5z"/>
	<path class="st0" d="M222.5,89c0-0.1,0.1-0.2,0.2-0.2h0.2c0.1,0,0.2,0.1,0.2,0.1l2.6,7.3c0,0,0,0,0.1,0l2.6-7.3
			     c0-0.1,0.1-0.1,0.2-0.1h0.2c0.1,0,0.2,0.1,0.2,0.2l1.7,9c0,0.2,0,0.3-0.2,0.3h-0.5c-0.1,0-0.2-0.1-0.2-0.2l-1.2-6.9
			     c0,0,0,0-0.1,0l-2.5,7c0,0.1-0.1,0.1-0.2,0.1h-0.2c-0.1,0-0.2-0.1-0.2-0.1l-2.5-7c0,0,0,0-0.1,0l-1.2,6.9c0,0.1-0.1,0.2-0.2,0.2
			     h-0.5c-0.2,0-0.3-0.1-0.2-0.3L222.5,89z"/>
	<path class="st0" d="M233,89.2c0-0.1,0.1-0.3,0.3-0.3h2.9c1.6,0,3,1.3,3,2.9c0,1.7-1.3,3-3,3H234V98c0,0.1-0.1,0.3-0.3,0.3h-0.5
			     c-0.1,0-0.3-0.1-0.3-0.3V89.2z M236.1,93.9c1.1,0,2-0.9,2-2c0-1.1-0.9-1.9-2-1.9H234v3.9H236.1z"/>
	<path class="st0" d="M239.2,97.9l4.1-9c0-0.1,0.1-0.1,0.2-0.1h0.1c0.1,0,0.2,0.1,0.2,0.1l4,9c0.1,0.2,0,0.3-0.2,0.3h-0.5
			     c-0.1,0-0.2-0.1-0.2-0.1l-1-2.2h-4.7l-1,2.2c0,0.1-0.1,0.1-0.2,0.1h-0.5C239.3,98.2,239.2,98.1,239.2,97.9z M245.6,95.1
			     c-0.7-1.5-1.3-2.9-1.9-4.4h-0.1l-1.9,4.4H245.6z"/>
	<path class="st0" d="M249.3,89c0-0.1,0.1-0.2,0.3-0.2h0.3l6,7.5c0,0,0,0,0,0v-7.1c0-0.1,0.1-0.3,0.3-0.3h0.5
			     c0.1,0,0.3,0.1,0.3,0.3v9c0,0.1-0.1,0.2-0.3,0.2h-0.2l-6.1-7.6h0V98c0,0.1-0.1,0.3-0.3,0.3h-0.5c-0.1,0-0.3-0.1-0.3-0.3V89z"/>
	<path class="st0" d="M261.5,93.8l-3.2-4.4c-0.1-0.2,0-0.4,0.2-0.4h0.6c0.1,0,0.2,0.1,0.2,0.1l2.7,3.7l2.7-3.7
			     c0-0.1,0.1-0.1,0.2-0.1h0.6c0.2,0,0.3,0.2,0.2,0.4l-3.3,4.4V98c0,0.1-0.1,0.3-0.3,0.3h-0.5c-0.1,0-0.3-0.1-0.3-0.3V93.8z"/>
      </g>
    </g>
    <g>
      <g>
	<defs>
	  <path id="SVGID_1_" d="M20.9,71.3c0,18.6,15.2,33.8,33.8,33.8c18.6,0,33.8-15.2,33.8-33.8c0-18.6-15.2-33.8-33.8-33.8
				 C36,37.5,20.9,52.6,20.9,71.3"/>
	</defs>
	<use xlink:href="#SVGID_1_"  style="overflow:visible;fill:#01A0C6;"/>
	<clipPath id="SVGID_2_">
	  <use xlink:href="#SVGID_1_"  style="overflow:visible;"/>
	</clipPath>
      </g>
      <path class="st1" d="M66.7,88.9c0,2.9-5.4,5.2-12.1,5.2c-6.7,0-12.1-2.3-12.1-5.2c0-2.9,5.4-5.2,12.1-5.2
			   C61.3,83.8,66.7,86.1,66.7,88.9"/>
      <path class="st1" d="M68.5,67.4c0,7.6-6.2,13.8-13.8,13.8c-7.6,0-13.8-6.2-13.8-13.8c0-7.6,6.2-13.8,13.8-13.8
			   C62.3,53.6,68.5,59.7,68.5,67.4"/>
      <path class="st1" d="M71.9,54.4c0,1.9-1.5,3.4-3.5,3.4c-1.9,0-3.5-1.5-3.5-3.4c0-1.9,1.6-3.5,3.5-3.5C70.4,51,71.9,52.5,71.9,54.4
			   "/>
    </g>
  </g>
</svg>
