<?xml version="1.0" encoding="UTF-8" standalone="no"?>
<!DOCTYPE svg PUBLIC "-//W3C//DTD SVG 1.1//EN" "http://www.w3.org/Graphics/SVG/1.1/DTD/svg11.dtd">
<svg version="1.1" xmlns="http://www.w3.org/2000/svg" xmlns:xlink="http://www.w3.org/1999/xlink" preserveAspectRatio="xMidYMid meet" viewBox="-1.0034502923976731 -1.0040350877193305 551 154.99999999999991" width="547" height="151"><defs><path d="M519.64 62.54C526.31 62.54 532.09 66.11 533.43 73.71C530.65 73.71 508.4 73.71 505.62 73.71C506.96 65.67 513.41 62.54 519.64 62.54M505.62 78.85C526.31 78.85 537.8 78.85 540.1 78.85C540.1 62.32 529.2 57.18 519.86 57.18C506.29 57.18 499.62 66.56 499.62 76.84C499.62 87.56 506.51 96.27 519.64 96.27C532.31 96.27 537.43 90.46 539.66 82.87C539.03 82.87 534.05 82.87 533.43 82.87C531.87 87.78 527.64 90.91 519.41 90.91C510.74 90.91 505.84 85.55 505.62 78.85" id="cXRjf8Hzh"></path><path d="M479.59 96.27C490.94 96.27 495.39 90.91 497.17 82.87C496.59 82.87 491.96 82.87 491.38 82.87C490.05 88.23 486.94 90.91 479.59 90.91C472.7 90.91 469.81 88.45 469.81 81.75C469.81 80.51 469.81 74.33 469.81 63.21L489.38 63.21L489.38 58.07L469.81 58.07L469.81 48.69L463.8 48.69C463.8 69.06 463.8 80.38 463.8 82.64C463.8 91.58 468.92 96.27 479.59 96.27" id="afxRtyXOb"></path><path d="M379.94 63.43L379.94 58.07L374.15 58.07L374.15 95.6L380.16 95.6C380.16 83.14 380.16 76.21 380.16 74.83C380.16 67.23 384.16 62.54 393.95 62.54C400.4 62.54 405.3 64.33 405.3 71.7C405.3 73.29 405.3 81.26 405.3 95.6L411.3 95.6C411.3 81.66 411.3 73.92 411.3 72.37C411.3 61.65 404.85 56.96 394.84 56.96C387.72 57.18 382.38 60.08 379.94 63.43" id="c1arZKngmM"></path><path d="M317.43 73.04C321.03 73.04 323.04 73.04 323.44 73.04C322.55 67.01 319.88 63.21 316.1 60.75C312.54 58.3 308.09 57.18 303.19 57.18C289.62 57.18 282.95 66.56 282.95 76.84C282.95 86.22 288.73 96.27 303.19 96.27C315.43 96.27 320.99 90.91 323.44 82.87C322.81 82.87 317.83 82.87 317.21 82.87C315.21 88 311.87 90.91 303.19 90.91C292.96 90.91 289.18 83.98 289.18 76.17C289.18 67.45 295.63 62.54 303.19 62.54C310.98 62.54 315.87 65.44 317.43 73.04" id="c5Sulyc7Rm"></path><path d="M227.56 63.21L227.56 58.07L221.55 58.07L221.55 95.6L227.56 95.6C227.56 83.14 227.56 76.21 227.56 74.83C227.56 67.23 231.12 62.54 240.46 62.54C240.46 61.98 240.46 57.51 240.46 56.96C233.34 57.18 229.56 60.08 227.56 63.21" id="c3ZKWupW6L"></path><path d="M459.13 76.84C459.13 63.88 450.01 57.18 437.55 57.18C424.21 57.18 415.97 65.44 415.97 76.84C415.97 85.32 421.54 96.27 437.55 96.27C437.55 96.27 437.55 96.27 437.55 96.27C451.94 89.72 459.13 83.24 459.13 76.84ZM453.35 76.84C453.35 84.21 448.23 90.91 437.55 90.91C426.43 90.91 421.98 83.76 421.98 76.84C421.98 67.9 428.43 62.54 437.55 62.54C437.55 62.54 437.55 62.54 437.55 62.54C448.08 66.11 453.35 70.88 453.35 76.84Z" id="c8iivizcAS"></path><path d="M334.78 78.85C355.47 78.85 366.96 78.85 369.26 78.85C369.26 62.32 358.36 57.18 349.02 57.18C335.45 57.18 328.55 66.56 328.55 76.84C328.55 87.56 335.45 96.27 348.57 96.27C361.25 96.27 366.37 90.46 368.82 82.87C368.19 82.87 363.21 82.87 362.59 82.87C361.03 87.78 356.8 90.91 348.57 90.91C340.12 90.91 335 85.55 334.78 78.85M348.8 62.54C355.47 62.54 361.25 66.11 362.59 73.71C359.81 73.71 337.56 73.71 334.78 73.71C336.12 65.67 342.79 62.54 348.8 62.54" id="dKvgw6oKW"></path><path d="M271.83 90.24L271.83 95.38L277.83 95.38C277.83 79.29 277.83 70.36 277.83 68.57C277.83 61.42 272.72 57.18 260.48 57.18C248.03 57.18 243.8 62.32 242.69 70.36C243.29 70.36 248.09 70.36 248.69 70.36C249.36 65 252.48 62.54 260.48 62.54C268.94 62.54 271.83 64.55 271.83 69.24C271.83 69.51 271.83 70.85 271.83 73.26C264.75 73.26 260.82 73.26 260.04 73.26C251.36 73.26 241.58 75.05 241.58 84.88C241.58 93.37 249.81 96.27 256.03 96.27C261.6 96.27 268.05 95.15 271.83 90.24M271.83 78.4C271.83 79.2 271.83 79.65 271.83 79.74C271.83 88 264.49 90.69 257.37 90.69C251.81 90.69 247.58 89.35 247.58 84.21C247.58 80.19 252.03 78.18 258.93 78.18C259.79 78.18 264.09 78.18 271.83 78.18L271.83 78.4Z" id="a5u3ApPrL"></path><path d="M208.21 63.66C204.43 58.97 198.42 57.18 192.64 57.18C181.07 57.18 171.28 64.77 171.28 76.61C171.28 89.79 181.51 96.27 192.41 96.27C198.2 96.27 204.43 94.71 207.99 89.79C207.99 90.04 207.99 92 207.99 92.25C207.99 101.63 203.31 104.98 192.64 104.98C186.63 104.98 180.4 103.86 179.07 97.16C178.44 97.16 173.46 97.16 172.84 97.16C174.62 108.11 184.18 110.34 192.86 110.34C205.54 110.34 213.77 105.65 213.77 90.91C213.77 88.7 213.77 77.69 213.77 57.85L207.76 57.85L207.76 63.66C208 63.66 208.15 63.66 208.21 63.66ZM192.64 62.54C202.2 62.54 208.43 67.9 208.43 76.61C208.43 85.1 202.42 90.91 192.64 90.91C183.29 90.91 177.51 85.1 177.51 76.61C177.51 67.9 184.18 62.54 192.64 62.54" id="a1pdYSLg94"></path><path d="M543.66 90.91C544.1 90.91 544.55 90.91 544.55 91.36C544.55 91.8 544.1 92.03 543.66 92.03C543.62 92.03 543.39 92.03 542.99 92.03L542.99 90.91C543.39 90.91 543.62 90.91 543.66 90.91ZM542.33 94.26L542.99 94.26L542.99 92.7L543.44 92.7L544.33 94.26L544.99 94.26C544.33 93.19 543.96 92.59 543.88 92.47C544.33 92.47 544.77 92.25 544.77 91.36C544.77 90.46 544.33 90.24 543.44 90.24C543.33 90.24 542.81 90.24 541.88 90.24L541.88 94.26L542.33 94.26ZM540.32 92.25C540.32 94.26 541.88 95.82 543.66 95.82C545.44 95.82 547 94.48 547 92.25C547 90.24 545.44 88.67 543.66 88.67C541.88 88.67 540.32 90.02 540.32 92.25M540.99 92.25C540.99 90.69 542.1 89.57 543.66 89.57C544.99 89.57 546.33 90.69 546.33 92.25C546.33 93.81 545.22 94.93 543.66 94.93C542.33 94.93 540.99 93.81 540.99 92.25" id="eA2zMLyA2"></path><path d="M254.92 114.81C254.92 114.59 255.14 114.59 255.37 114.59C255.39 114.59 255.57 114.59 255.59 114.59C255.81 114.59 256.03 114.81 256.03 114.81C256.92 116.82 264.04 132.9 264.93 134.91C265.15 135.36 264.93 135.58 264.49 135.58C264.38 135.58 263.49 135.58 263.38 135.58C263.15 135.58 262.93 135.36 262.93 135.36C262.78 135.03 262.04 133.39 260.71 130.45L250.25 130.45C248.92 133.39 248.17 135.03 248.03 135.36C248.03 135.58 247.8 135.58 247.58 135.58C247.47 135.58 246.58 135.58 246.47 135.58C245.8 135.58 245.58 135.36 245.8 134.91C247.63 130.89 254.01 116.82 254.92 114.81ZM255.59 118.83C255.57 118.83 255.5 118.83 255.37 118.83L251.14 128.66L259.82 128.66C257.89 124.34 256.48 121.06 255.59 118.83Z" id="a5ft54K61"></path><path d="M275.39 114.59C275.43 114.59 275.65 114.59 276.05 114.59C284.06 124.64 288.51 130.22 289.4 131.34C289.4 131.34 289.4 131.34 289.4 131.34C289.4 129.75 289.4 117.07 289.4 115.48C289.4 115.26 289.62 114.81 290.07 114.81C290.18 114.81 291.07 114.81 291.18 114.81C291.4 114.81 291.85 115.03 291.85 115.48C291.85 117.49 291.85 133.57 291.85 135.58C291.85 135.81 291.63 136.03 291.18 136.03C291.15 136.03 291 136.03 290.74 136.03L277.17 119.05L277.17 119.05C277.17 128.7 277.17 134.06 277.17 135.14C277.17 135.36 276.94 135.81 276.5 135.81C276.39 135.81 275.5 135.81 275.39 135.81C275.16 135.81 274.72 135.58 274.72 135.14C274.72 133.8 274.72 127.1 274.72 115.03C274.87 114.74 275.09 114.59 275.39 114.59Z" id="g2lN96A1UK"></path><path d="M298.3 114.81C298.41 114.81 299.3 114.81 299.41 114.81C299.63 114.81 300.08 115.03 300.08 115.48C300.08 117.45 300.08 133.17 300.08 135.14C300.08 135.36 299.86 135.81 299.41 135.81C299.3 135.81 298.41 135.81 298.3 135.81C298.08 135.81 297.63 135.58 297.63 135.14C297.63 133.83 297.63 127.27 297.63 115.48C297.78 115.03 298 114.81 298.3 114.81Z" id="a2J2td4uNA"></path><path d="M306.75 114.81C307.91 114.81 317.16 114.81 318.32 114.81C318.54 114.81 318.99 115.03 318.99 115.48C318.99 115.57 318.99 116.28 318.99 116.37C318.99 116.6 318.76 117.04 318.32 117.04C317.65 117.04 314.32 117.04 308.31 117.04L308.31 124.41C313.38 124.41 316.2 124.41 316.76 124.41C316.99 124.41 317.43 124.64 317.43 125.08C317.43 125.17 317.43 125.89 317.43 125.98C317.43 126.2 317.21 126.65 316.76 126.65C316.2 126.65 313.38 126.65 308.31 126.65L308.31 134.24C314.32 134.24 317.65 134.24 318.32 134.24C318.54 134.24 318.99 134.47 318.99 134.91C318.99 134.94 318.99 135.11 318.99 135.14C318.99 135.36 318.76 135.81 318.32 135.81C317.16 135.81 307.91 135.81 306.75 135.81C306.53 135.81 306.09 135.58 306.09 135.14C306.09 133.83 306.09 127.27 306.09 115.48C306.23 115.03 306.46 114.81 306.75 114.81Z" id="cikXUUAA8"></path><path d="M324.33 114.81C324.44 114.81 325.33 114.81 325.44 114.81C325.66 114.81 326.11 115.03 326.11 115.48C326.11 116.7 326.11 122.81 326.11 133.8C331.18 133.8 334 133.8 334.56 133.8C334.78 133.8 335.23 134.02 335.23 134.47C335.23 134.53 335.23 135.07 335.23 135.14C335.23 135.36 335 135.81 334.56 135.81C333.54 135.81 325.35 135.81 324.33 135.81C324.1 135.81 323.66 135.58 323.66 135.14C323.66 133.83 323.66 127.27 323.66 115.48C323.81 115.03 324.03 114.81 324.33 114.81Z" id="a1q4ZO21PU"></path><path d="M337.23 132.01C337.45 131.56 337.9 131.34 338.34 131.79C338.56 132.01 340.79 134.02 343.46 134.02C345.9 134.02 347.46 132.46 347.46 130.67C347.46 128.66 345.68 127.32 342.34 125.98C339.01 124.64 337.23 123.3 337.23 119.72C337.23 117.71 338.79 114.36 343.46 114.36C346.35 114.36 348.57 115.93 348.57 115.93C348.8 115.93 349.02 116.37 348.8 117.04C348.57 117.27 348.57 117.49 348.35 117.71C348.13 118.16 347.68 118.16 347.24 117.94C347.02 117.71 345.24 116.6 343.46 116.6C340.34 116.6 339.45 118.61 339.45 119.95C339.45 121.96 341.01 123.07 343.46 124.19C347.46 125.75 350.13 127.32 350.13 130.89C350.13 134.02 347.24 136.25 343.68 136.25C340.12 136.25 337.9 134.24 337.45 133.8C336.78 133.35 336.56 133.13 336.78 132.68C337.01 132.46 337.01 132.23 337.23 132.01Z" id="bWoVhDJwW"></path><path d="M354.58 114.81C355.74 114.81 364.99 114.81 366.15 114.81C366.37 114.81 366.81 115.03 366.81 115.48C366.81 115.57 366.81 116.28 366.81 116.37C366.81 116.6 366.59 117.04 366.15 117.04C365.48 117.04 362.14 117.04 356.14 117.04L356.14 124.41C361.21 124.41 364.03 124.41 364.59 124.41C364.81 124.41 365.26 124.64 365.26 125.08C365.26 125.17 365.26 125.89 365.26 125.98C365.26 126.2 365.03 126.65 364.59 126.65C364.03 126.65 361.21 126.65 356.14 126.65L356.14 134.24C362.14 134.24 365.48 134.24 366.15 134.24C366.37 134.24 366.81 134.47 366.81 134.91C366.81 134.94 366.81 135.11 366.81 135.14C366.81 135.36 366.59 135.81 366.15 135.81C364.99 135.81 355.74 135.81 354.58 135.81C354.36 135.81 353.91 135.58 353.91 135.14C353.91 133.83 353.91 127.27 353.91 115.48C354.06 115.03 354.28 114.81 354.58 114.81Z" id="basS35hvsq"></path><path d="M371.48 115.03C371.48 114.81 371.71 114.59 372.15 114.59C372.2 114.59 372.42 114.59 372.82 114.59C380.83 124.64 385.28 130.22 386.17 131.34C386.17 131.34 386.17 131.34 386.17 131.34C386.17 129.75 386.17 117.07 386.17 115.48C386.17 115.26 386.39 114.81 386.83 114.81C386.95 114.81 387.83 114.81 387.95 114.81C388.17 114.81 388.61 115.03 388.61 115.48C388.61 117.49 388.61 133.57 388.61 135.58C388.61 135.81 388.39 136.03 387.95 136.03C387.9 136.03 387.68 136.03 387.28 136.03L373.71 119.05L373.71 119.05C373.71 128.7 373.71 134.06 373.71 135.14C373.71 135.36 373.49 135.81 373.04 135.81C372.93 135.81 372.04 135.81 371.93 135.81C371.71 135.81 371.26 135.58 371.26 135.14C371.26 133.8 371.26 127.1 371.26 115.03C371.38 115.03 371.46 115.03 371.48 115.03Z" id="dNVnCWtFX"></path><path d="M417.31 117.27C417.53 117.49 417.53 117.94 417.31 118.16C417.22 118.25 416.51 118.96 416.42 119.05C416.2 119.28 415.97 119.28 415.75 119.05C414.2 117.71 412.19 116.82 410.19 116.82C405.52 116.82 401.96 120.84 401.96 125.31C401.96 130 405.52 133.8 410.19 133.8C412.86 133.8 414.2 132.68 415.75 131.56C415.97 131.34 416.2 131.34 416.42 131.56C416.51 131.65 417.22 132.37 417.31 132.46C417.53 132.68 417.53 133.13 417.31 133.35C415.31 135.36 412.64 136.25 410.19 136.25C404.18 136.25 399.51 131.56 399.51 125.53C399.51 119.5 404.18 114.59 410.19 114.59C413.08 114.59 415.31 115.7 417.31 117.27Z" id="b16v1Rhg7U"></path><path d="M441.78 125.31C441.78 131.34 437.11 136.03 431.1 136.03C425.09 136.03 420.42 131.34 420.42 125.31C420.42 119.28 425.09 114.59 431.1 114.59C437.11 114.59 441.78 119.28 441.78 125.31ZM439.78 125.31C439.78 120.62 435.99 116.6 431.1 116.6C426.43 116.6 422.43 120.62 422.43 125.31C422.43 130 426.21 134.02 431.1 134.02C435.77 134.02 439.78 130.22 439.78 125.31Z" id="l9TwicCD9b"></path><path d="M448.9 114.59C448.94 114.59 449.3 114.59 449.34 114.59C449.56 114.59 449.79 114.81 449.79 114.81C450.37 116.44 454.99 129.49 455.57 131.12C455.57 131.12 455.57 131.12 455.79 131.12C456.37 129.49 461 116.44 461.58 114.81C461.58 114.59 461.8 114.59 462.02 114.59C462.07 114.59 462.42 114.59 462.47 114.59C462.69 114.59 462.91 114.81 462.91 115.03C463.29 117.04 466.31 133.13 466.69 135.14C466.69 135.58 466.69 135.81 466.25 135.81C466.14 135.81 465.25 135.81 465.14 135.81C464.91 135.81 464.69 135.58 464.69 135.36C464.42 133.82 462.29 121.49 462.02 119.95C462.02 119.95 462.02 119.95 461.8 119.95C461.24 121.51 456.79 134.02 456.24 135.58C456.24 135.81 456.02 135.81 455.79 135.81C455.75 135.81 455.39 135.81 455.35 135.81C455.13 135.81 454.9 135.58 454.9 135.58C454.35 134.02 449.9 121.51 449.34 119.95C449.34 119.95 449.34 119.95 449.12 119.95C448.85 121.49 446.72 133.82 446.45 135.36C446.45 135.58 446.23 135.81 446.01 135.81C445.89 135.81 445 135.81 444.89 135.81C444.45 135.81 444.23 135.58 444.45 135.14C444.71 133.8 446.05 127.1 448.45 115.03C448.6 114.74 448.75 114.59 448.9 114.59Z" id="a57EJZVQHS"></path><path d="M471.81 115.48C471.81 115.26 472.03 114.81 472.48 114.81C473.12 114.81 478.28 114.81 478.93 114.81C482.49 114.81 485.6 117.71 485.6 121.29C485.6 125.08 482.71 127.99 478.93 127.99C478.6 127.99 476.97 127.99 474.03 127.99C474.03 132.28 474.03 134.66 474.03 135.14C474.03 135.36 473.81 135.81 473.37 135.81C473.25 135.81 472.37 135.81 472.25 135.81C472.03 135.81 471.59 135.58 471.59 135.14C471.59 133.83 471.59 127.27 471.59 115.48C471.71 115.48 471.78 115.48 471.81 115.48ZM483.15 121.51C483.15 119.05 481.15 117.27 478.7 117.27C478.39 117.27 476.84 117.27 474.03 117.27L474.03 125.98L478.7 125.98C481.67 124.64 483.15 123.15 483.15 121.51Z" id="c26S0pWUK9"></path><path d="M494.72 114.81C494.72 114.59 494.94 114.59 495.17 114.59C495.19 114.59 495.37 114.59 495.39 114.59C495.61 114.59 495.83 114.81 495.83 114.81C496.72 116.82 503.84 132.9 504.73 134.91C504.95 135.36 504.73 135.58 504.29 135.58C504.18 135.58 503.29 135.58 503.17 135.58C502.95 135.58 502.73 135.36 502.73 135.36C502.58 135.03 501.84 133.39 500.5 130.45L490.05 130.45C488.72 133.39 487.97 135.03 487.83 135.36C487.83 135.58 487.6 135.58 487.38 135.58C487.27 135.58 486.38 135.58 486.27 135.58C485.82 135.58 485.6 135.36 485.6 134.91C487.42 130.89 493.81 116.82 494.72 114.81ZM495.61 118.83C495.6 118.83 495.52 118.83 495.39 118.83L491.16 128.66L499.84 128.66C497.91 124.34 496.5 121.06 495.61 118.83Z" id="b5AdKBPpxX"></path><path d="M508.74 114.59C508.78 114.59 509 114.59 509.4 114.59C517.41 124.64 521.86 130.22 522.75 131.34C522.75 131.34 522.75 131.34 522.75 131.34C522.75 129.75 522.75 117.07 522.75 115.48C522.75 115.26 522.97 114.81 523.42 114.81C523.53 114.81 524.42 114.81 524.53 114.81C524.75 114.81 525.2 115.03 525.2 115.48C525.2 117.49 525.2 133.57 525.2 135.58C525.2 135.81 524.97 136.03 524.53 136.03C524.5 136.03 524.35 136.03 524.08 136.03L510.52 119.05L510.52 119.05C510.52 128.7 510.52 134.06 510.52 135.14C510.52 135.36 510.29 135.81 509.85 135.81C509.74 135.81 508.85 135.81 508.74 135.81C508.51 135.81 508.07 135.58 508.07 135.14C508.07 133.8 508.07 127.1 508.07 115.03C508.22 114.74 508.44 114.59 508.74 114.59Z" id="b3QaHiOWB"></path><path d="M535.21 125.75C530.94 119.86 528.56 116.58 528.09 115.93C527.87 115.48 528.09 115.03 528.53 115.03C528.67 115.03 529.73 115.03 529.87 115.03C530.09 115.03 530.31 115.26 530.31 115.26C530.71 115.81 532.72 118.56 536.32 123.52C539.92 118.56 541.92 115.81 542.33 115.26C542.33 115.03 542.55 115.03 542.77 115.03C542.9 115.03 543.97 115.03 544.1 115.03C544.55 115.03 544.77 115.48 544.55 115.93C544.06 116.58 541.61 119.86 537.21 125.75C537.21 131.38 537.21 134.51 537.21 135.14C537.21 135.36 536.99 135.81 536.54 135.81C536.43 135.81 535.54 135.81 535.43 135.81C535.21 135.81 534.76 135.58 534.76 135.14C534.76 134.51 534.76 131.38 534.76 125.75L535.21 125.75Z" id="b1wK2bn9RT"></path><path d="M0 75.5C0 117.04 33.81 151 75.18 151C116.56 151 150.37 117.04 150.37 75.5C150.37 33.95 116.56 0 75.18 0C33.59 0 0 33.73 0 75.5" id="a3y1HW4gv"></path><path d="M101.88 114.81C101.88 121.29 89.87 126.42 74.96 126.42C60.06 126.42 48.05 121.29 48.05 114.81C48.05 108.33 60.06 103.19 74.96 103.19C89.87 103.42 101.88 108.56 101.88 114.81" id="a1DnF4nCDL"></path><path d="M105.88 66.78C105.88 83.76 92.09 97.61 75.18 97.61C58.28 97.61 44.49 83.76 44.49 66.78C44.49 49.81 58.28 35.96 75.18 35.96C92.09 35.96 105.88 49.58 105.88 66.78" id="cWVJ29Nmv"></path><path d="M113.45 37.75C113.45 41.99 110.11 45.34 105.66 45.34C101.43 45.34 97.87 41.99 97.87 37.75C97.87 33.5 101.43 29.93 105.66 29.93C110.11 30.15 113.45 33.5 113.45 37.75" id="ebVXMTgn"></path></defs><g><g><use xlink:href="#cXRjf8Hzh" opacity="1" fill="#000000" fill-opacity="1"></use><g><use xlink:href="#cXRjf8Hzh" opacity="1" fill-opacity="0" stroke="#000000" stroke-width="1" stroke-opacity="0"></use></g></g><g><use xlink:href="#afxRtyXOb" opacity="1" fill="#000000" fill-opacity="1"></use><g><use xlink:href="#afxRtyXOb" opacity="1" fill-opacity="0" stroke="#000000" stroke-width="1" stroke-opacity="0"></use></g></g><g><use xlink:href="#c1arZKngmM" opacity="1" fill="#000000" fill-opacity="1"></use><g><use xlink:href="#c1arZKngmM" opacity="1" fill-opacity="0" stroke="#000000" stroke-width="1" stroke-opacity="0"></use></g></g><g><use xlink:href="#c5Sulyc7Rm" opacity="1" fill="#000000" fill-opacity="1"></use><g><use xlink:href="#c5Sulyc7Rm" opacity="1" fill-opacity="0" stroke="#000000" stroke-width="1" stroke-opacity="0"></use></g></g><g><use xlink:href="#c3ZKWupW6L" opacity="1" fill="#000000" fill-opacity="1"></use><g><use xlink:href="#c3ZKWupW6L" opacity="1" fill-opacity="0" stroke="#000000" stroke-width="1" stroke-opacity="0"></use></g></g><g><use xlink:href="#c8iivizcAS" opacity="1" fill="#000000" fill-opacity="1"></use><g><use xlink:href="#c8iivizcAS" opacity="1" fill-opacity="0" stroke="#000000" stroke-width="1" stroke-opacity="0"></use></g></g><g><use xlink:href="#dKvgw6oKW" opacity="1" fill="#000000" fill-opacity="1"></use><g><use xlink:href="#dKvgw6oKW" opacity="1" fill-opacity="0" stroke="#000000" stroke-width="1" stroke-opacity="0"></use></g></g><g><use xlink:href="#a5u3ApPrL" opacity="1" fill="#000000" fill-opacity="1"></use><g><use xlink:href="#a5u3ApPrL" opacity="1" fill-opacity="0" stroke="#000000" stroke-width="1" stroke-opacity="0"></use></g></g><g><use xlink:href="#a1pdYSLg94" opacity="1" fill="#000000" fill-opacity="1"></use><g><use xlink:href="#a1pdYSLg94" opacity="1" fill-opacity="0" stroke="#000000" stroke-width="1" stroke-opacity="0"></use></g></g><g><use xlink:href="#eA2zMLyA2" opacity="1" fill="#000000" fill-opacity="1"></use><g><use xlink:href="#eA2zMLyA2" opacity="1" fill-opacity="0" stroke="#000000" stroke-width="1" stroke-opacity="0"></use></g></g><g><use xlink:href="#a5ft54K61" opacity="1" fill="#515256" fill-opacity="1"></use><g><use xlink:href="#a5ft54K61" opacity="1" fill-opacity="0" stroke="#000000" stroke-width="1" stroke-opacity="0"></use></g></g><g><use xlink:href="#g2lN96A1UK" opacity="1" fill="#515256" fill-opacity="1"></use><g><use xlink:href="#g2lN96A1UK" opacity="1" fill-opacity="0" stroke="#000000" stroke-width="1" stroke-opacity="0"></use></g></g><g><use xlink:href="#a2J2td4uNA" opacity="1" fill="#515256" fill-opacity="1"></use><g><use xlink:href="#a2J2td4uNA" opacity="1" fill-opacity="0" stroke="#000000" stroke-width="1" stroke-opacity="0"></use></g></g><g><use xlink:href="#cikXUUAA8" opacity="1" fill="#515256" fill-opacity="1"></use><g><use xlink:href="#cikXUUAA8" opacity="1" fill-opacity="0" stroke="#000000" stroke-width="1" stroke-opacity="0"></use></g></g><g><use xlink:href="#a1q4ZO21PU" opacity="1" fill="#515256" fill-opacity="1"></use><g><use xlink:href="#a1q4ZO21PU" opacity="1" fill-opacity="0" stroke="#000000" stroke-width="1" stroke-opacity="0"></use></g></g><g><use xlink:href="#bWoVhDJwW" opacity="1" fill="#515256" fill-opacity="1"></use><g><use xlink:href="#bWoVhDJwW" opacity="1" fill-opacity="0" stroke="#000000" stroke-width="1" stroke-opacity="0"></use></g></g><g><use xlink:href="#basS35hvsq" opacity="1" fill="#515256" fill-opacity="1"></use><g><use xlink:href="#basS35hvsq" opacity="1" fill-opacity="0" stroke="#000000" stroke-width="1" stroke-opacity="0"></use></g></g><g><use xlink:href="#dNVnCWtFX" opacity="1" fill="#515256" fill-opacity="1"></use><g><use xlink:href="#dNVnCWtFX" opacity="1" fill-opacity="0" stroke="#000000" stroke-width="1" stroke-opacity="0"></use></g></g><g><use xlink:href="#b16v1Rhg7U" opacity="1" fill="#515256" fill-opacity="1"></use><g><use xlink:href="#b16v1Rhg7U" opacity="1" fill-opacity="0" stroke="#000000" stroke-width="1" stroke-opacity="0"></use></g></g><g><use xlink:href="#l9TwicCD9b" opacity="1" fill="#515256" fill-opacity="1"></use><g><use xlink:href="#l9TwicCD9b" opacity="1" fill-opacity="0" stroke="#000000" stroke-width="1" stroke-opacity="0"></use></g></g><g><use xlink:href="#a57EJZVQHS" opacity="1" fill="#515256" fill-opacity="1"></use><g><use xlink:href="#a57EJZVQHS" opacity="1" fill-opacity="0" stroke="#000000" stroke-width="1" stroke-opacity="0"></use></g></g><g><use xlink:href="#c26S0pWUK9" opacity="1" fill="#515256" fill-opacity="1"></use><g><use xlink:href="#c26S0pWUK9" opacity="1" fill-opacity="0" stroke="#000000" stroke-width="1" stroke-opacity="0"></use></g></g><g><use xlink:href="#b5AdKBPpxX" opacity="1" fill="#515256" fill-opacity="1"></use><g><use xlink:href="#b5AdKBPpxX" opacity="1" fill-opacity="0" stroke="#000000" stroke-width="1" stroke-opacity="0"></use></g></g><g><use xlink:href="#b3QaHiOWB" opacity="1" fill="#515256" fill-opacity="1"></use><g><use xlink:href="#b3QaHiOWB" opacity="1" fill-opacity="0" stroke="#000000" stroke-width="1" stroke-opacity="0"></use></g></g><g><use xlink:href="#b1wK2bn9RT" opacity="1" fill="#515256" fill-opacity="1"></use><g><use xlink:href="#b1wK2bn9RT" opacity="1" fill-opacity="0" stroke="#000000" stroke-width="1" stroke-opacity="0"></use></g></g><g><use xlink:href="#a3y1HW4gv" opacity="1" fill="#01a0c6" fill-opacity="1"></use><g><use xlink:href="#a3y1HW4gv" opacity="1" fill-opacity="0" stroke="#000000" stroke-width="1" stroke-opacity="0"></use></g></g><g><use xlink:href="#a1DnF4nCDL" opacity="1" fill="#ffffff" fill-opacity="1"></use><g><use xlink:href="#a1DnF4nCDL" opacity="1" fill-opacity="0" stroke="#000000" stroke-width="1" stroke-opacity="0"></use></g></g><g><use xlink:href="#cWVJ29Nmv" opacity="1" fill="#ffffff" fill-opacity="1"></use><g><use xlink:href="#cWVJ29Nmv" opacity="1" fill-opacity="0" stroke="#000000" stroke-width="1" stroke-opacity="0"></use></g></g><g><use xlink:href="#ebVXMTgn" opacity="1" fill="#ffffff" fill-opacity="1"></use><g><use xlink:href="#ebVXMTgn" opacity="1" fill-opacity="0" stroke="#000000" stroke-width="1" stroke-opacity="0"></use></g></g></g></svg>